# Blender 3.4.0
# www.blender.org
mtllib cube.mtl
o Cube
v 7.588858 0.041094 -2.047753
v 7.588858 0.041094 -0.983034
v 6.524139 0.041094 -0.983034
v 6.524139 0.041094 -2.047753
v 7.588858 1.105814 -2.047753
v 7.588858 1.105814 -0.983033
v 6.524139 1.105814 -0.983034
v 6.524139 1.105814 -2.047753
v 7.588858 0.041094 -2.047753
v 7.588858 0.041094 -0.983034
v 7.588858 1.105814 -2.047753
v 7.588858 1.105814 -0.983033
v 7.588858 0.041094 -2.047753
v 6.524139 0.041094 -2.047753
v 7.588858 1.105814 -2.047753
v 6.524139 1.105814 -2.047753
v 6.524139 0.041094 -0.983034
v 6.524139 0.041094 -2.047753
v 6.524139 1.105814 -0.983034
v 6.524139 1.105814 -2.047753
v 7.588858 0.041094 -0.983034
v 6.524139 0.041094 -0.983034
v 7.588858 1.105814 -0.983033
v 6.524139 1.105814 -0.983034
vn -0.0000 -1.0000 -0.0000
vn -0.0000 1.0000 -0.0000
vn -0.0000 -0.0000 1.0000
vn 1.0000 -0.0000 -0.0000
vn -0.0000 -0.0000 -1.0000
vn -1.0000 -0.0000 -0.0000
vt 0.500000 0.500000
vt 0.500000 0.250000
vt 0.750000 0.250000
vt 0.750000 0.500000
vt 0.250000 0.500000
vt 0.250000 0.250000
vt 0.000100 0.250000
vt 0.000100 0.500000
vt 0.500000 0.500000
vt 0.500000 0.250000
vt 0.250000 0.500000
vt 0.250000 0.250000
vt 0.750000 0.750000
vt 0.750000 0.500000
vt 0.999900 0.750000
vt 0.999900 0.500000
vt 0.750000 0.250000
vt 0.750000 0.500000
vt 0.999900 0.250000
vt 0.999900 0.500000
vt 0.750000 0.000100
vt 0.750000 0.250000
vt 0.999900 0.000100
vt 0.999900 0.250000
s 0
usemtl Material.003
f 2/2/1 4/4/1 1/1/1
f 8/8/2 6/6/2 5/5/2
f 23/23/3 22/22/3 21/21/3
f 11/11/4 10/10/4 9/9/4
f 13/13/5 16/16/5 15/15/5
f 17/17/6 20/20/6 18/18/6
f 2/2/1 3/3/1 4/4/1
f 8/8/2 7/7/2 6/6/2
f 23/23/3 24/24/3 22/22/3
f 11/11/4 12/12/4 10/10/4
f 13/13/5 14/14/5 16/16/5
f 17/17/6 19/19/6 20/20/6
