# Blender 3.4.0
# www.blender.org
mtllib sky.mtl
o Cube.001
v -66.085831 -1.995813 -66.608582
v -66.085831 52.945503 -66.608582
v 64.811478 -1.995813 -66.608582
v 64.811478 52.945503 -66.608582
v -66.085831 -1.995821 65.920700
v -66.085831 52.945496 65.920700
v 64.811478 -1.995821 65.920700
v 64.811478 52.945496 65.920700
vn -0.0000 -0.0000 -1.0000
vn 1.0000 -0.0000 -0.0000
vn -0.0000 -0.0000 1.0000
vn -1.0000 -0.0000 -0.0000
vn -0.0000 -1.0000 -0.0000
vn -0.0000 1.0000 -0.0000
vt 0.999977 0.333380
vt 0.002233 0.336002
vt 0.249877 0.001957
vt 0.999909 0.666280
vt 0.000095 0.666658
vt 0.253248 0.994638
vt 0.500999 0.000995
vt 0.751853 0.335805
vt 0.756503 0.666764
vt 0.498046 0.999094
vt 0.249963 0.332988
vt 0.249715 0.666922
vt 0.500309 0.332882
vt 0.499810 0.667668
s 0
f 2/4/1 3/8/1 1/1/1
f 4/9/2 7/13/2 3/8/2
f 8/14/3 5/11/3 7/13/3
f 6/12/4 1/2/4 5/11/4
f 7/13/5 1/3/5 3/7/5
f 4/10/6 6/12/6 8/14/6
f 2/4/1 4/9/1 3/8/1
f 4/9/2 8/14/2 7/13/2
f 8/14/3 6/12/3 5/11/3
f 6/12/4 2/5/4 1/2/4
f 7/13/5 5/11/5 1/3/5
f 4/10/6 2/6/6 6/12/6
